<svg xmlns="http://www.w3.org/2000/svg" viewBox="0 0 100 100" fill="none">
  <!-- Basic Banner - Guild common item -->
  <!-- Pole -->
  <rect x="20" y="10" width="3" height="80" fill="#6B7280" rx="1.5"/>
  <circle cx="21.5" cy="10" r="3" fill="#9CA3AF"/>
  <!-- Banner fabric -->
  <path d="M23 18 L75 18 L75 60 L49 52 L23 60 Z" fill="#6B7280"/>
  <path d="M23 18 L75 18 L75 60 L49 52 L23 60 Z" fill="none" stroke="#4B5563" stroke-width="1"/>
  <!-- Inner design -->
  <path d="M28 22 L70 22 L70 55 L49 48 L28 55 Z" fill="#9CA3AF" opacity="0.3"/>
  <!-- Simple shield icon -->
  <path d="M42 28 L49 25 L56 28 L56 40 Q56 46 49 50 Q42 46 42 40 Z" fill="none" stroke="#D1D5DB" stroke-width="1.5"/>
  <!-- Check mark -->
  <path d="M45 37 L48 41 L54 33" stroke="#D1D5DB" stroke-width="1.5" fill="none" stroke-linecap="round" stroke-linejoin="round"/>
  <!-- Simple tassel -->
  <line x1="23" y1="60" x2="23" y2="68" stroke="#6B7280" stroke-width="1.5"/>
  <line x1="49" y1="52" x2="49" y2="60" stroke="#6B7280" stroke-width="1.5"/>
</svg>
